<svg width="60" height="35" viewBox="0 0 60 35" fill="none" xmlns="http://www.w3.org/2000/svg">
<g id="Group 84">
<path id="Stroke 1" fill-rule="evenodd" clip-rule="evenodd" d="M11.0117 19.8532C11.9226 20.6227 13.1182 21.6285 14.4411 22.7383C19.2327 26.7503 25.7369 32.1266 26.7134 32.7678C27.5414 33.3141 28.9108 33.7524 30.0953 33.609C31.0112 33.502 31.819 33.0455 32.1886 32.0327C34.0517 33.7342 37.6659 33.0536 37.8901 30.6098C39.4149 32.0327 43.1401 30.725 42.8564 28.1115C44.6629 29.3597 47.5409 26.9987 46.1898 24.1864C44.4953 20.6621 35.9179 12.7623 31.401 9.75102C29.1986 10.5457 29.66 10.4337 27.9888 10.6023C26.7699 12.422 24.7392 15.3212 21.633 14.2972C18.5278 13.2733 20.7868 7.81823 22.9872 5.65722C25.1906 3.49721 29.8751 0.826243 34.9555 3.10035C40.0359 5.37245 43.1401 6.2833 43.1401 6.2833" fill="white"/>
<path id="Path 10" fill-rule="evenodd" clip-rule="evenodd" d="M3.56202 1.13184L14.632 3.52406L23.0257 4.03193L42.8562 6.07926L54.5204 4.52936L58.9994 22.7375H49.8535L47.7721 21.7999L46.5389 23.6751L12.966 20.3868H11.0114L9.43905 23.6751L1 23.9282L3.56202 1.13184Z" fill="white"/>
<path id="Stroke 1_2" d="M11.0117 19.8532C11.9226 20.6227 13.1182 21.6285 14.4411 22.7383C19.2327 26.7503 25.7369 32.1266 26.7134 32.7678C27.5414 33.3141 28.9108 33.7524 30.0953 33.609C31.0112 33.502 31.819 33.0455 32.1886 32.0327C34.0517 33.7342 37.6659 33.0536 37.8901 30.6098C39.4149 32.0327 43.1401 30.725 42.8564 28.1115C44.6629 29.3597 47.5409 26.9987 46.1898 24.1864C44.4953 20.6621 35.9179 12.7623 31.401 9.75102C29.1986 10.5457 29.66 10.4337 27.9888 10.6023C26.7699 12.422 24.7392 15.3212 21.633 14.2972C18.5278 13.2733 20.7868 7.81823 22.9872 5.65722C25.1906 3.49721 29.8751 0.826243 34.9555 3.10035C40.0359 5.37245 43.1401 6.2833 43.1401 6.2833" stroke="#3D9FFF" stroke-width="1.09433" stroke-linecap="round" stroke-linejoin="round"/>
<path id="Stroke 3" d="M25.551 3.7384C22.8174 3.44151 16.6091 3.26984 14.6318 3.3274" stroke="#3D9FFF" stroke-width="1.09433" stroke-linecap="round" stroke-linejoin="round"/>
<path id="Stroke 5" d="M46.5371 23.675L49.0081 21.7998" stroke="#3D9FFF" stroke-width="1.09433" stroke-linecap="round" stroke-linejoin="round"/>
<path id="Stroke 7" d="M42.856 28.1111C41.5584 27.0851 34.3887 20.3799 34.3887 20.3799" stroke="#3D9FFF" stroke-width="1.09433" stroke-linecap="round" stroke-linejoin="round"/>
<path id="Stroke 9" d="M37.8896 30.61C36.2527 29.3023 31.452 24.9833 30.7734 24.2451" stroke="#3D9FFF" stroke-width="1.09433" stroke-linecap="round" stroke-linejoin="round"/>
<path id="Stroke 11" d="M32.1885 32.0322C30.5021 30.6104 28.2502 28.3393 26.8809 26.873" stroke="#3D9FFF" stroke-width="1.09433" stroke-linecap="round" stroke-linejoin="round"/>
<path id="Stroke 13" fill-rule="evenodd" clip-rule="evenodd" d="M1 23.6755C3.37105 24.245 9.43905 23.6755 9.43905 23.6755C9.43905 23.6755 14.065 9.81976 14.6326 3.32763C11.5001 2.23501 3.5407 1 3.5407 1C3.5407 1 1.08482 14.5043 1 23.6755Z" stroke="#0B3694" stroke-width="1.09433" stroke-linecap="round" stroke-linejoin="round"/>
<path id="Stroke 15" fill-rule="evenodd" clip-rule="evenodd" d="M43.6455 6.41046C45.34 9.13697 48.9531 19.4664 49.8539 22.7362C51.9997 23.6188 58.9998 23.131 58.9998 23.131C58.9998 23.131 57.7042 8.85725 54.7677 4.76345C49.6014 3.73848 43.6455 6.41046 43.6455 6.41046Z" stroke="#0B3694" stroke-width="1.09433" stroke-linecap="round" stroke-linejoin="round"/>
</g>
</svg>
