<svg width="26" height="36" viewBox="0 0 26 36" fill="none" xmlns="http://www.w3.org/2000/svg">
<g id="Group 540">
<g id="Group">
<g id="Group_2">
<path id="Vector" d="M25.9947 6.54688C25.9961 6.39095 25.9357 6.24078 25.8269 6.1291L19.9178 0.220011C19.8066 0.110398 19.6561 0.0499773 19.5 0.0521932V0.046875H1.77273C0.793665 0.046875 0 0.84054 0 1.8196V33.7287C0 34.7078 0.793665 35.5014 1.77273 35.5014H24.2273C25.2063 35.5014 26 34.7078 26 33.7287V6.54688H25.9947ZM20.0909 2.06424L23.9826 5.95597H20.6818C20.3555 5.95597 20.0909 5.69139 20.0909 5.36506V2.06424ZM24.8182 33.7287C24.8182 34.055 24.5536 34.3196 24.2273 34.3196H1.77273C1.4464 34.3196 1.18182 34.055 1.18182 33.7287V1.8196C1.18182 1.49327 1.4464 1.22869 1.77273 1.22869H18.9091V5.36506C18.9091 6.34412 19.7028 7.13778 20.6818 7.13778H24.8182V33.7287Z" fill="#0B3694"/>
</g>
</g>
<g id="Group_3">
<g id="Group_4">
<path id="Vector_2" d="M5.90945 16.0039C4.93038 16.0039 4.13672 16.7976 4.13672 17.7766C4.13672 18.7557 4.93038 19.5494 5.90945 19.5494C6.88851 19.5494 7.68217 18.7557 7.68217 17.7766C7.68217 16.7976 6.88851 16.0039 5.90945 16.0039ZM5.90945 18.3675C5.58312 18.3675 5.31854 18.103 5.31854 17.7766C5.31854 17.4503 5.58312 17.1857 5.90945 17.1857C6.23578 17.1857 6.50036 17.4503 6.50036 17.7766C6.50036 18.103 6.23578 18.3675 5.90945 18.3675Z" fill="#3D9FFF"/>
</g>
</g>
<g id="Group_5">
<g id="Group_6">
<path id="Vector_3" d="M21.8641 17.1855H10.0459V18.3674H21.8641V17.1855Z" fill="#0B3694"/>
</g>
</g>
<g id="Group_7">
<g id="Group_8">
<path id="Vector_4" d="M5.90945 10.0898C4.93038 10.0898 4.13672 10.8835 4.13672 11.8626C4.13672 12.8416 4.93038 13.6353 5.90945 13.6353C6.88851 13.6353 7.68217 12.8416 7.68217 11.8626C7.68217 10.8835 6.88851 10.0898 5.90945 10.0898ZM5.90945 12.4535C5.58312 12.4535 5.31854 12.1889 5.31854 11.8626C5.31854 11.5362 5.58312 11.2717 5.90945 11.2717C6.23578 11.2717 6.50036 11.5362 6.50036 11.8626C6.50036 12.1889 6.23578 12.4535 5.90945 12.4535Z" fill="#3D9FFF"/>
</g>
</g>
<g id="Group_9">
<g id="Group_10">
<path id="Vector_5" d="M21.8641 11.2739H10.0459V12.4557H21.8641V11.2739Z" fill="#0B3694"/>
</g>
</g>
<g id="Group_11">
<g id="Group_12">
<path id="Vector_6" d="M5.90945 21.9082C4.93038 21.9082 4.13672 22.7019 4.13672 23.6809C4.13672 24.66 4.93038 25.4537 5.90945 25.4537C6.88851 25.4537 7.68217 24.66 7.68217 23.6809C7.68217 22.7019 6.88851 21.9082 5.90945 21.9082ZM5.90945 24.2718C5.58312 24.2718 5.31854 24.0073 5.31854 23.6809C5.31854 23.3546 5.58312 23.09 5.90945 23.09C6.23578 23.09 6.50036 23.3546 6.50036 23.6809C6.50036 24.0073 6.23578 24.2718 5.90945 24.2718Z" fill="#3D9FFF"/>
</g>
</g>
<g id="Group_13">
<g id="Group_14">
<path id="Vector_7" d="M21.8641 23.0898H10.0459V24.2717H21.8641V23.0898Z" fill="#0B3694"/>
</g>
</g>
<g id="Group_15">
<g id="Group_16">
<path id="Vector_8" d="M5.90945 27.8198C4.93038 27.8198 4.13672 28.6135 4.13672 29.5926C4.13672 30.5716 4.93038 31.3653 5.90945 31.3653C6.88851 31.3653 7.68217 30.5716 7.68217 29.5926C7.68217 28.6135 6.88851 27.8198 5.90945 27.8198ZM5.90945 30.1835C5.58312 30.1835 5.31854 29.9189 5.31854 29.5926C5.31854 29.2662 5.58312 29.0016 5.90945 29.0016C6.23578 29.0016 6.50036 29.2662 6.50036 29.5926C6.50036 29.9189 6.23578 30.1835 5.90945 30.1835Z" fill="#3D9FFF"/>
</g>
</g>
<g id="Group_17">
<g id="Group_18">
<path id="Vector_9" d="M21.8641 29.0039H10.0459V30.1857H21.8641V29.0039Z" fill="#0B3694"/>
</g>
</g>
</g>
</svg>
