<svg width="33" height="43" viewBox="0 0 33 43" fill="none" xmlns="http://www.w3.org/2000/svg">
<g id="Group 540">
<g id="Group">
<g id="Group_2">
<path id="Vector" d="M32.2603 7.88333C32.262 7.69422 32.1888 7.5121 32.0567 7.37665L24.8901 0.209983C24.7553 0.0770417 24.5727 0.0037625 24.3834 0.00645V0H2.8834C1.69597 0 0.733398 0.962573 0.733398 2.15V40.85C0.733398 42.0374 1.69597 43 2.8834 43H30.1167C31.3042 43 32.2667 42.0374 32.2667 40.85V7.88333H32.2603ZM25.1001 2.4467L29.82 7.16667H25.8167C25.421 7.16667 25.1001 6.84578 25.1001 6.45V2.4467ZM30.8334 40.85C30.8334 41.2458 30.5125 41.5667 30.1167 41.5667H2.8834C2.48762 41.5667 2.16673 41.2458 2.16673 40.85V2.15C2.16673 1.75422 2.48762 1.43333 2.8834 1.43333H23.6667V6.45C23.6667 7.63743 24.6293 8.6 25.8167 8.6H30.8334V40.85Z" fill="#0B3694"/>
</g>
</g>
<g id="Group_3">
<g id="Group_4">
<path id="Vector_2" d="M7.89902 19.3496C6.7116 19.3496 5.74902 20.3122 5.74902 21.4996C5.74902 22.687 6.7116 23.6496 7.89902 23.6496C9.08645 23.6496 10.049 22.687 10.049 21.4996C10.049 20.3122 9.08645 19.3496 7.89902 19.3496ZM7.89902 22.2163C7.50324 22.2163 7.18236 21.8954 7.18236 21.4996C7.18236 21.1038 7.50324 20.7829 7.89902 20.7829C8.2948 20.7829 8.61569 21.1038 8.61569 21.4996C8.61569 21.8954 8.2948 22.2163 7.89902 22.2163Z" fill="#3D9FFF"/>
</g>
</g>
<g id="Group_5">
<g id="Group_6">
<path id="Vector_3" d="M27.2493 20.7852H12.916V22.2185H27.2493V20.7852Z" fill="#0B3694"/>
</g>
</g>
<g id="Group_7">
<g id="Group_8">
<path id="Vector_4" d="M7.89902 12.1826C6.7116 12.1826 5.74902 13.1452 5.74902 14.3326C5.74902 15.52 6.7116 16.4826 7.89902 16.4826C9.08645 16.4826 10.049 15.52 10.049 14.3326C10.049 13.1452 9.08645 12.1826 7.89902 12.1826ZM7.89902 15.0493C7.50324 15.0493 7.18236 14.7284 7.18236 14.3326C7.18236 13.9368 7.50324 13.616 7.89902 13.616C8.2948 13.616 8.61569 13.9368 8.61569 14.3326C8.61569 14.7284 8.2948 15.0493 7.89902 15.0493Z" fill="#3D9FFF"/>
</g>
</g>
<g id="Group_9">
<g id="Group_10">
<path id="Vector_5" d="M27.2493 13.6182H12.916V15.0515H27.2493V13.6182Z" fill="#0B3694"/>
</g>
</g>
<g id="Group_11">
<g id="Group_12">
<path id="Vector_6" d="M7.89902 26.5166C6.7116 26.5166 5.74902 27.4792 5.74902 28.6666C5.74902 29.854 6.7116 30.8166 7.89902 30.8166C9.08645 30.8166 10.049 29.854 10.049 28.6666C10.049 27.4792 9.08645 26.5166 7.89902 26.5166ZM7.89902 29.3833C7.50324 29.3833 7.18236 29.0624 7.18236 28.6666C7.18236 28.2708 7.50324 27.9499 7.89902 27.9499C8.2948 27.9499 8.61569 28.2708 8.61569 28.6666C8.61569 29.0624 8.2948 29.3833 7.89902 29.3833Z" fill="#3D9FFF"/>
</g>
</g>
<g id="Group_13">
<g id="Group_14">
<path id="Vector_7" d="M27.2493 27.9492H12.916V29.3826H27.2493V27.9492Z" fill="#0B3694"/>
</g>
</g>
<g id="Group_15">
<g id="Group_16">
<path id="Vector_8" d="M7.89902 33.6826C6.7116 33.6826 5.74902 34.6452 5.74902 35.8326C5.74902 37.02 6.7116 37.9826 7.89902 37.9826C9.08645 37.9826 10.049 37.02 10.049 35.8326C10.049 34.6452 9.08645 33.6826 7.89902 33.6826ZM7.89902 36.5493C7.50324 36.5493 7.18236 36.2284 7.18236 35.8326C7.18236 35.4368 7.50324 35.116 7.89902 35.116C8.2948 35.116 8.61569 35.4368 8.61569 35.8326C8.61569 36.2284 8.2948 36.5493 7.89902 36.5493Z" fill="#3D9FFF"/>
</g>
</g>
<g id="Group_17">
<g id="Group_18">
<path id="Vector_9" d="M27.2493 35.1182H12.916V36.5515H27.2493V35.1182Z" fill="#0B3694"/>
</g>
</g>
</g>
</svg>
