<svg width="13" height="15" viewBox="0 0 13 15" fill="none" xmlns="http://www.w3.org/2000/svg">
<g id="Group 524">
<path id="Vector" d="M6.47199 14.4289C2.90309 14.4289 0 11.5245 0 7.95501C0 4.48886 2.70923 1.64857 6.16748 1.48843C6.29819 1.4855 6.41715 1.58736 6.42303 1.72202C6.42939 1.85718 6.32463 1.97177 6.18902 1.97814C2.99317 2.12603 0.489071 4.75135 0.489071 7.95501C0.489071 11.2542 3.17235 13.9392 6.4715 13.9392C9.76966 13.9392 12.4539 11.2551 12.4539 7.95501C12.4539 6.23516 11.7117 4.5966 10.4178 3.45901C10.316 3.36989 10.3062 3.21514 10.3958 3.11328C10.4849 3.01191 10.6396 3.00163 10.7414 3.09124C12.1411 4.32139 12.944 6.09412 12.944 7.95501C12.9435 11.525 10.0404 14.4289 6.47199 14.4289Z" fill="#0B3694"/>
<path id="Vector_2" d="M3.10391 11.6434C3.04125 11.6434 2.97858 11.6194 2.93061 11.5719C2.83563 11.476 2.83563 11.3203 2.93061 11.2248L6.29681 7.85913C6.39228 7.76416 6.54795 7.76416 6.64293 7.85913C6.73839 7.9546 6.73839 8.11028 6.64293 8.20525L3.27672 11.571C3.22924 11.6199 3.16657 11.6434 3.10391 11.6434Z" fill="#3D9FFF"/>
<path id="Vector_3" d="M8.52382 10.329C8.46066 10.329 8.398 10.305 8.35051 10.2575L6.29779 8.20531C6.20282 8.10985 6.20282 7.95417 6.29779 7.8592C6.39326 7.76373 6.54894 7.76373 6.64391 7.8592L8.69663 9.91094C8.79209 10.0064 8.79209 10.1616 8.69663 10.2575C8.64914 10.305 8.58648 10.329 8.52382 10.329Z" fill="#3D9FFF"/>
<path id="Vector_4" d="M5.24975 3.72512C5.20275 3.72512 5.15575 3.71191 5.11365 3.68351C5.00154 3.60812 4.97168 3.45636 5.04707 3.34376L6.1334 1.72528L4.50268 0.636989C4.39008 0.562577 4.35973 0.410324 4.43463 0.298215C4.50954 0.185616 4.66179 0.155264 4.7739 0.229677L6.60925 1.45357C6.6631 1.48931 6.70129 1.54561 6.71353 1.60925C6.72577 1.67338 6.71304 1.73948 6.67681 1.79333L5.45341 3.61595C5.40592 3.68694 5.32857 3.72512 5.24975 3.72512Z" fill="#0B3694"/>
</g>
</svg>
