<svg width="15" height="14" viewBox="0 0 15 14" fill="none" xmlns="http://www.w3.org/2000/svg">
<g id="Group 626">
<g id="Group">
<g id="Group_2">
<path id="Vector" d="M13.4449 1.13701H12.5032V0.390726C12.5032 0.175827 12.3274 0 12.1125 0C11.8976 0 11.7218 0.175827 11.7218 0.390726V1.13701H7.89267V0.390726C7.89267 0.175827 7.71685 0 7.50195 0C7.28705 0 7.11122 0.175827 7.11122 0.390726V1.13701H3.24303V0.390726C3.24303 0.175827 3.0672 0 2.8523 0C2.6374 0 2.46158 0.175827 2.46158 0.390726V1.13701H1.559C0.6994 1.13701 0 1.85986 0 2.71946V11.8038C0 12.6673 0.695493 13.3667 1.559 13.3667H13.441C14.3045 13.3667 15 12.6673 15 11.8077V2.71946C15.0039 1.85986 14.3045 1.13701 13.4449 1.13701ZM14.2224 11.8038C14.2224 12.2336 13.8786 12.5814 13.4488 12.5853H13.4449H1.559C1.1292 12.5853 0.781453 12.2375 0.781453 11.8077V11.8038V2.71946C0.781453 2.28575 1.1292 1.91847 1.559 1.91847H2.46158V2.48502C2.46158 2.69992 2.6374 2.87575 2.8523 2.87575C3.0672 2.87575 3.24303 2.69992 3.24303 2.48502V1.91847H7.11122V2.48502C7.11122 2.69992 7.28705 2.87575 7.50195 2.87575C7.71685 2.87575 7.89267 2.69992 7.89267 2.48502V1.91847H11.7218V2.48502C11.7218 2.69992 11.8976 2.87575 12.1125 2.87575C12.3274 2.87575 12.5032 2.69992 12.5032 2.48502V1.91847H13.4449C13.8786 1.91847 14.2224 2.28966 14.2224 2.71946V11.8038Z" fill="#0B3694"/>
</g>
</g>
<g id="Group_3">
<g id="Group_4">
<path id="Vector_2" d="M6.47391 4.45825H5.79014C5.57524 4.45825 5.39941 4.63408 5.39941 4.84898C5.39941 5.06388 5.57524 5.2397 5.79014 5.2397H6.47391C6.68881 5.2397 6.86464 5.06388 6.86464 4.84898C6.86464 4.63408 6.68881 4.45825 6.47391 4.45825Z" fill="#3D9FFF"/>
</g>
</g>
<g id="Group_5">
<g id="Group_6">
<path id="Vector_3" d="M9.19559 4.45825H8.51182C8.29692 4.45825 8.12109 4.63408 8.12109 4.84898C8.12109 5.06388 8.29692 5.2397 8.51182 5.2397H9.19559C9.41049 5.2397 9.58632 5.06388 9.58632 4.84898C9.58632 4.63408 9.4144 4.45825 9.19559 4.45825Z" fill="#3D9FFF"/>
</g>
</g>
<g id="Group_7">
<g id="Group_8">
<path id="Vector_4" d="M11.9378 4.45825H11.254C11.0391 4.45825 10.8633 4.63408 10.8633 4.84898C10.8633 5.06388 11.0391 5.2397 11.254 5.2397H11.9378C12.1527 5.2397 12.3285 5.06388 12.3285 4.84898C12.3285 4.63408 12.1527 4.45825 11.9378 4.45825Z" fill="#3D9FFF"/>
</g>
</g>
<g id="Group_9">
<g id="Group_10">
<path id="Vector_5" d="M6.47391 7.15356H5.79014C5.57524 7.15356 5.39941 7.32939 5.39941 7.54429C5.39941 7.75919 5.57524 7.93502 5.79014 7.93502H6.47391C6.68881 7.93502 6.86464 7.75919 6.86464 7.54429C6.86464 7.32939 6.68881 7.15356 6.47391 7.15356Z" fill="#3D9FFF"/>
</g>
</g>
<g id="Group_11">
<g id="Group_12">
<path id="Vector_6" d="M3.73563 7.1543H3.04795C2.83305 7.1543 2.65723 7.33012 2.65723 7.54502C2.65723 7.75992 2.83305 7.93575 3.04795 7.93575H3.73172C3.94662 7.93575 4.12245 7.75992 4.12245 7.54502C4.12245 7.33012 3.95053 7.1543 3.73563 7.1543Z" fill="#3D9FFF"/>
</g>
</g>
<g id="Group_13">
<g id="Group_14">
<path id="Vector_7" d="M9.19559 7.15356H8.51182C8.29692 7.15356 8.12109 7.32939 8.12109 7.54429C8.12109 7.75919 8.29692 7.93502 8.51182 7.93502H9.19559C9.41049 7.93502 9.58632 7.75919 9.58632 7.54429C9.58632 7.32939 9.4144 7.15356 9.19559 7.15356Z" fill="#3D9FFF"/>
</g>
</g>
<g id="Group_15">
<g id="Group_16">
<path id="Vector_8" d="M11.9378 7.15356H11.254C11.0391 7.15356 10.8633 7.32939 10.8633 7.54429C10.8633 7.75919 11.0391 7.93502 11.254 7.93502H11.9378C12.1527 7.93502 12.3285 7.75919 12.3285 7.54429C12.3285 7.32939 12.1527 7.15356 11.9378 7.15356Z" fill="#3D9FFF"/>
</g>
</g>
<g id="Group_17">
<g id="Group_18">
<path id="Vector_9" d="M6.47391 9.81079H5.79014C5.57524 9.81079 5.39941 9.98662 5.39941 10.2015C5.39941 10.4164 5.57524 10.5922 5.79014 10.5922H6.47391C6.68881 10.5922 6.86464 10.4164 6.86464 10.2015C6.86464 9.98662 6.68881 9.81079 6.47391 9.81079Z" fill="#3D9FFF"/>
</g>
</g>
<g id="Group_19">
<g id="Group_20">
<path id="Vector_10" d="M3.73563 9.81152H3.04795C2.83305 9.81152 2.65723 9.98735 2.65723 10.2022C2.65723 10.4171 2.83305 10.593 3.04795 10.593H3.73172C3.94662 10.593 4.12245 10.4171 4.12245 10.2022C4.12245 9.98735 3.95053 9.81152 3.73563 9.81152Z" fill="#0B3694"/>
</g>
</g>
<g id="Group_21">
<g id="Group_22">
<path id="Vector_11" d="M9.19559 9.81152H8.51182C8.29692 9.81152 8.12109 9.98735 8.12109 10.2022C8.12109 10.4171 8.29692 10.593 8.51182 10.593H9.19559C9.41049 10.593 9.58632 10.4171 9.58632 10.2022C9.58632 9.98735 9.4144 9.81152 9.19559 9.81152Z" fill="#3D9FFF"/>
</g>
</g>
</g>
</svg>
