<svg width="29" height="31" viewBox="0 0 29 31" fill="none" xmlns="http://www.w3.org/2000/svg">
<g id="Group 188">
<path id="Vector" d="M26.7984 20.6276H2.06126C1.77678 20.6276 1.5459 20.3955 1.5459 20.1119V3.60992C1.5459 3.32527 1.77678 3.09424 2.06126 3.09424H26.7984C27.0819 3.09424 27.3138 3.32527 27.3138 3.60992V20.1119C27.3138 20.3965 27.0819 20.6276 26.7984 20.6276ZM2.57661 19.5962H26.2831V4.12561H2.57661V19.5962Z" fill="#3D9FFF"/>
<path id="Vector_2" d="M20.217 30.0191C20.05 30.0191 19.8872 29.9387 19.7872 29.7881L15.0624 22.6964L10.3376 29.7881C10.1799 30.0243 9.86038 30.0882 9.62331 29.9325C9.38625 29.7747 9.32234 29.4549 9.48004 29.2177L14.6336 21.4825C14.8253 21.1958 15.2995 21.1958 15.4912 21.4825L20.6448 29.2177C20.8014 29.4539 20.7386 29.7747 20.5015 29.9325C20.4149 29.9902 20.3149 30.0191 20.217 30.0191Z" fill="#0B3694"/>
<path id="Vector_3" d="M28.3447 1.03072H0.515358C0.23088 1.03072 0 0.799836 0 0.515358C0 0.23088 0.23088 0 0.515358 0H28.3447C28.6281 0 28.86 0.23088 28.86 0.515358C28.86 0.799836 28.6281 1.03072 28.3447 1.03072Z" fill="#0B3694"/>
</g>
</svg>
