<svg width="26" height="26" viewBox="0 0 26 26" fill="none" xmlns="http://www.w3.org/2000/svg">
<g id="Group">
<g id="Group_2">
<path id="Vector" d="M13 1.08333C19.5693 1.08333 24.9167 6.42958 24.9167 13C24.9167 19.5693 19.5693 24.9167 13 24.9167C6.42958 24.9167 1.08333 19.5693 1.08333 13C1.08333 6.42958 6.42958 1.08333 13 1.08333ZM13 0C5.82075 0 0 5.82075 0 13C0 20.1793 5.82075 26 13 26C20.1793 26 26 20.1793 26 13C26 5.82075 20.1793 0 13 0Z" fill="#3D9FFF"/>
<path id="Vector_2" d="M11.9385 17.9206C11.7955 17.9206 11.6579 17.8643 11.555 17.7624L7.17504 13.3836C6.96379 13.1723 6.96379 12.8289 7.17504 12.6177C7.38629 12.4064 7.72971 12.4064 7.94096 12.6177L11.8529 16.5274L17.9867 7.2847C18.1511 7.03554 18.4883 6.9662 18.7372 7.13304C18.9864 7.2977 19.0546 7.63462 18.8899 7.88379L12.3899 17.679C12.3 17.8144 12.1549 17.9033 11.9924 17.9198C11.9753 17.9195 11.9569 17.9206 11.9385 17.9206Z" fill="#3D9FFF"/>
</g>
</g>
</svg>
