<svg width="32" height="31" viewBox="0 0 32 31" fill="none" xmlns="http://www.w3.org/2000/svg">
<g id="Group 191">
<path id="Vector" d="M30.5172 30.0192H0.517241C0.231724 30.0192 0 29.7863 0 29.5016V1.55273C0 1.26703 0.231724 1.03516 0.517241 1.03516H30.5172C30.8017 1.03516 31.0345 1.26703 31.0345 1.55273V29.5016C31.0345 29.7863 30.8017 30.0192 30.5172 30.0192ZM1.03448 28.984H30V2.0703H1.03448V28.984Z" fill="#3D9FFF"/>
<path id="Vector_2" d="M29.9994 25.8779H1.03384C0.748326 25.8779 0.516602 25.6451 0.516602 25.3606C0.516602 25.0761 0.748326 24.8434 1.03384 24.8434H29.9994C30.2838 24.8434 30.5166 25.0761 30.5166 25.3606C30.5166 25.6451 30.2838 25.8779 29.9994 25.8779Z" fill="#3D9FFF"/>
<path id="Vector_3" d="M29.9994 6.21026H1.03384C0.748326 6.21026 0.516602 5.97854 0.516602 5.69302C0.516602 5.40751 0.748326 5.17578 1.03384 5.17578H29.9994C30.2838 5.17578 30.5166 5.40751 30.5166 5.69302C30.5166 5.97854 30.2838 6.21026 29.9994 6.21026Z" fill="#3D9FFF"/>
<path id="Vector_4" d="M4.13864 27.9483H3.10416C2.81864 27.9483 2.58691 27.7155 2.58691 27.4311C2.58691 27.1466 2.81864 26.9138 3.10416 26.9138H4.13864C4.42416 26.9138 4.65588 27.1466 4.65588 27.4311C4.65588 27.7155 4.42416 27.9483 4.13864 27.9483Z" fill="#0B3694"/>
<path id="Vector_5" d="M8.27633 27.9483H7.24185C6.95633 27.9483 6.72461 27.7155 6.72461 27.4311C6.72461 27.1466 6.95633 26.9138 7.24185 26.9138H8.27633C8.56185 26.9138 8.79358 27.1466 8.79358 27.4311C8.79358 27.7155 8.56185 27.9483 8.27633 27.9483Z" fill="#0B3694"/>
<path id="Vector_6" d="M12.414 27.9483H11.3795C11.094 27.9483 10.8623 27.7155 10.8623 27.4311C10.8623 27.1466 11.094 26.9138 11.3795 26.9138H12.414C12.6995 26.9138 12.9313 27.1466 12.9313 27.4311C12.9313 27.7155 12.6995 27.9483 12.414 27.9483Z" fill="#0B3694"/>
<path id="Vector_7" d="M16.5517 27.9483H15.5172C15.2317 27.9483 15 27.7155 15 27.4311C15 27.1466 15.2317 26.9138 15.5172 26.9138H16.5517C16.8362 26.9138 17.069 27.1466 17.069 27.4311C17.069 27.7155 16.8362 27.9483 16.5517 27.9483Z" fill="#0B3694"/>
<path id="Vector_8" d="M20.6894 27.9483H19.6549C19.3705 27.9483 19.1377 27.7155 19.1377 27.4311C19.1377 27.1466 19.3705 26.9138 19.6549 26.9138H20.6894C20.9739 26.9138 21.2067 27.1466 21.2067 27.4311C21.2067 27.7155 20.9739 27.9483 20.6894 27.9483Z" fill="#0B3694"/>
<path id="Vector_9" d="M24.8271 27.9483H23.7926C23.5081 27.9483 23.2754 27.7155 23.2754 27.4311C23.2754 27.1466 23.5081 26.9138 23.7926 26.9138H24.8271C25.1116 26.9138 25.3444 27.1466 25.3444 27.4311C25.3444 27.7155 25.1116 27.9483 24.8271 27.9483Z" fill="#0B3694"/>
<path id="Vector_10" d="M28.9648 27.9483H27.9303C27.6458 27.9483 27.4131 27.7155 27.4131 27.4311C27.4131 27.1466 27.6458 26.9138 27.9303 26.9138H28.9648C29.2493 26.9138 29.4821 27.1466 29.4821 27.4311C29.4821 27.7155 29.2493 27.9483 28.9648 27.9483Z" fill="#0B3694"/>
<path id="Vector_11" d="M3.10348 4.13983H2.069C1.78348 4.13983 1.55176 3.90811 1.55176 3.62259C1.55176 3.33707 1.78348 3.10535 2.069 3.10535H3.10348C3.389 3.10535 3.62072 3.33707 3.62072 3.62259C3.62072 3.90811 3.389 4.13983 3.10348 4.13983Z" fill="#0B3694"/>
<path id="Vector_12" d="M7.24118 4.13983H6.20669C5.92118 4.13983 5.68945 3.90811 5.68945 3.62259C5.68945 3.33707 5.92118 3.10535 6.20669 3.10535H7.24118C7.52669 3.10535 7.75842 3.33707 7.75842 3.62259C7.75842 3.90811 7.52669 4.13983 7.24118 4.13983Z" fill="#0B3694"/>
<path id="Vector_13" d="M11.3789 4.13983H10.3444C10.0589 4.13983 9.82715 3.90811 9.82715 3.62259C9.82715 3.33707 10.0589 3.10535 10.3444 3.10535H11.3789C11.6644 3.10535 11.8961 3.33707 11.8961 3.62259C11.8961 3.90811 11.6644 4.13983 11.3789 4.13983Z" fill="#0B3694"/>
<path id="Vector_14" d="M15.5166 4.13983H14.4821C14.1966 4.13983 13.9648 3.90811 13.9648 3.62259C13.9648 3.33707 14.1966 3.10535 14.4821 3.10535H15.5166C15.8021 3.10535 16.0338 3.33707 16.0338 3.62259C16.0338 3.90811 15.8021 4.13983 15.5166 4.13983Z" fill="#0B3694"/>
<path id="Vector_15" d="M19.6552 4.13983H18.6208C18.3363 4.13983 18.1035 3.90811 18.1035 3.62259C18.1035 3.33707 18.3363 3.10535 18.6208 3.10535H19.6552C19.9397 3.10535 20.1725 3.33707 20.1725 3.62259C20.1725 3.90811 19.9397 4.13983 19.6552 4.13983Z" fill="#0B3694"/>
<path id="Vector_16" d="M23.792 4.13983H22.7575C22.473 4.13983 22.2402 3.90811 22.2402 3.62259C22.2402 3.33707 22.473 3.10535 22.7575 3.10535H23.792C24.0764 3.10535 24.3092 3.33707 24.3092 3.62259C24.3092 3.90811 24.0764 4.13983 23.792 4.13983Z" fill="#0B3694"/>
<path id="Vector_17" d="M27.9306 4.13983H26.8961C26.6117 4.13983 26.3789 3.90811 26.3789 3.62259C26.3789 3.33707 26.6117 3.10535 26.8961 3.10535H27.9306C28.2151 3.10535 28.4479 3.33707 28.4479 3.62259C28.4479 3.90811 28.2151 4.13983 27.9306 4.13983Z" fill="#0B3694"/>
<path id="Vector_18" d="M10.8629 21.8912C10.7781 21.8912 10.6943 21.8705 10.6178 21.8291C10.4502 21.74 10.3457 21.5651 10.3457 21.3736V9.42184C10.3457 9.23137 10.4502 9.05643 10.6178 8.96637C10.7854 8.87632 10.9881 8.8846 11.1474 8.99018L20.1991 14.965C20.3445 15.0613 20.4319 15.2238 20.4319 15.3977C20.4319 15.5716 20.345 15.7341 20.1991 15.8294L11.1474 21.8063C11.0616 21.8632 10.9623 21.8912 10.8629 21.8912ZM11.3802 10.3824V20.412L18.9753 15.3967L11.3802 10.3824Z" fill="#0B3694"/>
</g>
</svg>
