<svg width="37" height="24" viewBox="0 0 37 24" fill="none" xmlns="http://www.w3.org/2000/svg">
<g id="Group">
<path id="Vector" d="M4.20912 22.116C3.89211 22.116 3.60648 21.9229 3.48406 21.6294C3.36165 21.336 3.42913 21.0001 3.65356 20.7741C4.24836 20.1777 5.30613 18.7449 6.05317 17.1755C2.2976 15.4648 0 12.5175 0 9.34576C0 4.19343 5.98411 0 13.3399 0C20.6972 0 26.6798 4.19343 26.6798 9.34576C26.6798 14.4981 20.6956 18.69 13.3399 18.69C12.9004 18.69 12.4689 18.6696 12.042 18.6397C9.86523 20.9452 7.23022 22.116 4.20912 22.116ZM13.3399 1.5694C6.84885 1.5694 1.5694 5.05817 1.5694 9.34576C1.5694 12.0624 3.7948 14.6252 7.37774 16.0345C7.57234 16.113 7.72928 16.2637 7.81089 16.4567C7.8925 16.6482 7.89721 16.8663 7.81874 17.0594C7.35263 18.2223 6.66209 19.4166 5.98725 20.3786C7.93017 19.9957 9.65493 18.9724 11.1349 17.3089C11.2981 17.1253 11.5398 17.0311 11.7877 17.0499C12.2962 17.0939 12.811 17.1253 13.3383 17.1253C19.8293 17.1253 25.1088 13.6365 25.1088 9.35047C25.1104 5.05817 19.8309 1.5694 13.3399 1.5694Z" fill="#3D9FFF"/>
<path id="Vector_2" d="M32.1482 23.6838C29.35 23.6838 26.9096 22.6041 24.8897 20.4744C21.6835 20.7004 18.3014 19.9863 15.7841 18.5158C15.409 18.2977 15.2835 17.8206 15.5016 17.4423C15.7197 17.0641 16.2016 16.9401 16.5751 17.1598C18.9166 18.5252 22.1339 19.1436 25.1408 18.8799C25.381 18.8548 25.6305 18.9552 25.7937 19.1389C27.1151 20.6188 28.6469 21.5526 30.3701 21.923C29.7721 21.052 29.1695 19.9957 28.7599 18.9662C28.6814 18.7732 28.6845 18.555 28.7677 18.3636C28.8493 18.1721 29.0063 18.0199 29.1993 17.9398C32.4856 16.6545 34.5274 14.3082 34.5274 11.8239C34.5274 7.89726 29.678 4.70197 23.7158 4.70197C23.2827 4.70197 22.9311 4.34885 22.9311 3.91727C22.9311 3.48568 23.2827 3.13257 23.7158 3.13257C30.5427 3.13257 36.0968 7.02781 36.0968 11.8239C36.0968 14.7618 33.9813 17.4863 30.527 19.0839C31.2128 20.4995 32.1812 21.8131 32.7053 22.3373C32.9313 22.5633 32.9988 22.896 32.8748 23.1926C32.7524 23.4877 32.4684 23.6838 32.1482 23.6838Z" fill="#0B3694"/>
</g>
</svg>
